<svg width="180" height="180" viewBox="0 0 180 180" fill="none" xmlns="http://www.w3.org/2000/svg">
<rect width="180" height="180" rx="90" fill="#4038FF"/>
<path d="M80 120H130L128.1 103.8C127.5 98.8 123.2 95 118.2 95H91.9C86.8 95 82.6 98.8 82 103.8L80 120Z" fill="white"/>
<path d="M130 123H80C79.1 123 78.3 122.6 77.8 122C77.2 121.4 77 120.5 77.1 119.7L79 103.5C79.7 96.9 85.3 92 91.9 92H118.2C124.8 92 130.3 96.9 131.1 103.5L133 119.7C133.1 120.6 132.8 121.4 132.3 122C131.7 122.6 130.9 123 130 123ZM83.4 117H126.6L125.1 104.2C124.7 100.7 121.7 98 118.1 98H91.9C88.4 98 85.4 100.7 84.9 104.2L83.4 117Z" fill="black"/>
<path d="M98.7 92V95H111V92C111 90.3 109.7 89 108 89H101.7C100 89 98.7 90.3 98.7 92ZM82 153H77C75.3 153 74 151.7 74 150V140C74 138.3 75.3 137 77 137C78 137 79 137.5 79.5 138.3C80 137.5 81 137 82 137C83.7 137 85 138.3 85 140V150C85 151.7 83.7 153 82 153ZM132 153H128C126.3 153 125 151.7 125 150V140C125 138.3 126.3 137 128 137C128.8 137 129.5 137.3 130 137.8C130.5 137.3 131.2 137 132 137C133.7 137 135 138.3 135 140V150C135 151.7 133.7 153 132 153Z" fill="black"/>
<path d="M80 139.868H130V114.868H80V139.868Z" fill="black"/>
<path d="M130 114.9H105V139.9H130V114.9Z" fill="black"/>
<path d="M130 142.9H80C78.3 142.9 77 141.6 77 139.9V119.9C77 115.6 80.5 112 84.8 111.9C98.2 109.9 111.9 109.9 125.3 111.9C129.6 112 133.1 115.6 133.1 119.9V139.9C133 141.5 131.7 142.9 130 142.9ZM83 136.9H127V119.9C127 118.8 126.1 117.9 125 117.9C124.9 117.9 124.7 117.9 124.6 117.9C111.6 116 98.5 116 85.5 117.9C85.4 117.9 85.2 117.9 85.1 117.9C84 117.9 83.1 118.8 83.1 119.9V136.9H83Z" fill="black"/>
<path d="M130 120C133.9 120 137 123.1 137 127V140H123V127C123 123.1 126.1 120 130 120ZM80 120C83.9 120 87 123.1 87 127V140H73V127C73 123.1 76.1 120 80 120Z" fill="#676F77"/>
<path d="M140 143H70C68.3 143 67 141.7 67 140C67 138.3 68.3 137 70 137H140C141.7 137 143 138.3 143 140C143 141.7 141.7 143 140 143Z" fill="black"/>
<path d="M137 143H123C121.3 143 120 141.7 120 140V127C120 121.5 124.5 117 130 117C135.5 117 140 121.5 140 127V140C140 141.7 138.7 143 137 143ZM126 137H134V127C134 124.8 132.2 123 130 123C127.8 123 126 124.8 126 127V137ZM87 143H73C71.3 143 70 141.7 70 140V127C70 121.5 74.5 117 80 117C85.5 117 90 121.5 90 127V140C90 141.7 88.7 143 87 143ZM76 137H84V127C84 124.8 82.2 123 80 123C77.8 123 76 124.8 76 127V137Z" fill="black"/>
<path d="M130 131C132.209 131 134 129.209 134 127C134 124.791 132.209 123 130 123C127.791 123 126 124.791 126 127C126 129.209 127.791 131 130 131Z" fill="white"/>
<path d="M80 131C82.2091 131 84 129.209 84 127C84 124.791 82.2091 123 80 123C77.7909 123 76 124.791 76 127C76 129.209 77.7909 131 80 131Z" fill="white"/>
<path d="M99 137H111C112.1 137 113 136.1 113 135V128C113 123.6 109.4 120 105 120C100.6 120 97 123.6 97 128V135C97 136.1 97.9 137 99 137Z" fill="white"/>
<path d="M92 150H40C34.5 150 30 145.5 30 140V50C30 44.5 34.5 40 40 40H92C97.5 40 102 44.5 102 50V140C102 145.5 97.5 150 92 150Z" fill="white"/>
<path d="M66 143C68.2091 143 70 141.209 70 139C70 136.791 68.2091 135 66 135C63.7909 135 62 136.791 62 139C62 141.209 63.7909 143 66 143Z" fill="#E9EEF4"/>
<path d="M92 153H40C32.8 153 27 147.2 27 140V50C27 42.8 32.8 37 40 37H92C99.2 37 105 42.8 105 50V140C105 147.2 99.2 153 92 153ZM40 43C36.1 43 33 46.1 33 50V140C33 143.9 36.1 147 40 147H92C95.9 147 99 143.9 99 140V50C99 46.1 95.9 43 92 43H40Z" fill="black"/>
<path d="M93 49H39V128H93V49Z" fill="#E9EEF4"/>
<path d="M66 112C78.7025 112 89 101.703 89 89C89 76.2975 78.7025 66 66 66C53.2975 66 43 76.2975 43 89C43 101.703 53.2975 112 66 112Z" fill="white"/>
<path d="M61 82H51V92H61V82Z" fill="black"/>
<path d="M81 82H71V92H81V82Z" fill="black"/>
<path d="M71 92H61V102H71V92Z" fill="black"/>
<path d="M135 153H92C90.3 153 89 151.7 89 150C89 148.3 90.3 147 92 147H135C136.7 147 138 148.3 138 150C138 151.7 136.7 153 135 153Z" fill="black"/>
<path d="M150 153C149.8 153 149.6 153 149.4 152.9C149.2 152.9 149 152.8 148.8 152.7C148.6 152.6 148.5 152.5 148.3 152.4C148.1 152.3 148 152.2 147.8 152C147.7 151.9 147.5 151.7 147.4 151.5C147.3 151.3 147.2 151.2 147.1 151C147 150.8 147 150.6 146.9 150.4C146.9 150.2 146.8 150 146.8 149.8C146.8 149.6 146.8 149.4 146.9 149.2C146.9 149 147 148.8 147.1 148.6C147.2 148.4 147.3 148.3 147.4 148.1C147.5 147.9 147.6 147.8 147.8 147.7C148 147.6 148.1 147.4 148.3 147.3C148.5 147.2 148.6 147.1 148.8 147C149 146.9 149.2 146.9 149.4 146.8C149.8 146.7 150.2 146.7 150.6 146.8C150.8 146.8 151 146.9 151.2 147C151.4 147.1 151.6 147.2 151.7 147.3C151.9 147.4 152 147.5 152.2 147.7C152.3 147.8 152.5 148 152.6 148.1C152.7 148.3 152.8 148.4 152.9 148.6C153 148.8 153 149 153.1 149.2C153.1 149.4 153.2 149.6 153.2 149.8C153.2 150 153.2 150.2 153.1 150.4C153.1 150.6 153 150.8 152.9 151C152.8 151.2 152.7 151.4 152.6 151.5C152.5 151.7 152.4 151.8 152.2 152C152.1 152.1 151.9 152.3 151.7 152.4C151.5 152.5 151.4 152.6 151.2 152.7C151 152.8 150.8 152.8 150.6 152.9C150.4 153 150.2 153 150 153Z" fill="black"/>
</svg>
