<svg width="68" height="68" viewBox="0 0 68 68" fill="none" xmlns="http://www.w3.org/2000/svg">
<path d="M56.517 64.205C48.817 67.445 36.327 67.445 28.597 64.205C26.717 63.415 25.287 62.515 24.307 61.545C25.744 61.036 26.836 59.895 27.287 58.865C33.717 59.575 40.617 58.505 45.567 55.625C47.947 54.245 49.657 52.575 50.587 50.755C50.767 50.785 50.937 50.825 51.107 50.855C53.037 51.245 54.837 51.785 56.437 52.455C64.167 55.695 64.207 60.955 56.517 64.205Z" fill="#0C0C0C"/>
<path d="M27.287 58.865L27.027 58.835C26.113 60.66 24.046 61.864 21.827 61.585C19.267 61.255 17.397 59.065 17.387 56.555C17.387 56.375 17.387 56.195 17.417 56.015C17.367 55.989 16.985 55.779 16.937 55.755C16.914 55.8 16.887 56.229 16.887 56.285C16.8284 57.6857 17.2971 59.0574 18.2006 60.1293C19.1041 61.2013 20.3766 61.8955 21.767 62.075C24.362 62.399 26.673 60.89 27.547 58.895L27.287 58.865ZM19.277 52.555C19.437 52.425 19.597 52.305 19.767 52.205C19.65 52.158 19.557 52.13 19.207 51.975C19.057 52.085 18.907 52.205 18.767 52.335C18.837 52.369 19.237 52.541 19.277 52.555Z" fill="#0C0C0C"/>
<path d="M50.808 41.417L50.794 46.284C50.786 49.32 48.789 52.354 44.802 54.67C36.796 59.323 23.75 59.327 15.684 54.67C11.624 52.326 9.59896 49.25 9.60696 46.18L9.62096 41.313C9.61196 44.383 11.638 47.46 15.698 49.803C28.628 57.269 50.778 51.979 50.808 41.417Z" fill="#007AFF"/>
<path d="M51.707 42.335C51.567 42.335 51.457 42.445 51.457 42.585C51.447 45.405 49.687 48.085 46.487 50.195C46.747 50.215 47.007 50.235 47.267 50.265C49.327 48.805 50.737 47.095 51.447 45.265L51.437 47.455C51.4241 48.6075 51.1325 49.7397 50.587 50.755C49.657 52.575 47.947 54.245 45.567 55.625C40.687 58.465 33.907 59.555 27.547 58.895L27.287 58.865L27.027 58.835C23.753 58.454 20.289 57.522 17.417 56.015C14.034 54.323 10.747 51.215 10.747 47.355L10.757 45.165C12.029 48.523 15.457 50.928 18.767 52.335C18.837 52.369 19.237 52.541 19.277 52.555C19.437 52.425 19.597 52.305 19.767 52.205C15.321 50.422 10.767 47.184 10.767 42.505V42.485C10.767 42.345 10.657 42.235 10.517 42.235C10.377 42.235 10.267 42.345 10.267 42.485L10.247 47.345C10.237 50.655 12.447 53.745 16.457 56.055C16.597 56.135 16.737 56.215 16.887 56.285C16.967 56.345 17.057 56.385 17.137 56.435C17.227 56.475 17.307 56.515 17.387 56.555C21.564 58.695 26.538 59.575 31.157 59.575C36.477 59.575 41.787 58.405 45.817 56.055C48.347 54.585 50.147 52.805 51.107 50.855C51.647 49.765 51.927 48.625 51.937 47.455L51.957 42.585C51.957 42.455 51.837 42.335 51.707 42.335Z" fill="#0C0C0C"/>
<path d="M50.347 37.845C49.417 36.555 48.097 35.355 46.437 34.295C46.557 34.575 46.707 34.865 46.867 35.175C49.827 37.265 51.447 39.845 51.457 42.555C51.457 52.886 29.532 58.148 16.717 50.755C12.887 48.545 10.767 45.615 10.767 42.515C10.757 39.755 12.427 37.125 15.507 35.035C15.577 34.895 15.637 34.755 15.677 34.645C15.727 34.505 15.767 34.375 15.807 34.235C12.217 36.485 10.257 39.405 10.267 42.515C10.267 45.805 12.477 48.885 16.467 51.195C20.527 53.535 25.857 54.705 31.167 54.705C36.487 54.705 41.797 53.535 45.837 51.195C49.787 48.895 51.957 45.835 51.957 42.555C51.947 40.905 51.397 39.315 50.347 37.845Z" fill="#0C0C0C"/>
<path d="M48.707 37.725C47.397 35.765 46.567 34.205 46.317 33.215C46.247 32.965 46.187 32.715 46.127 32.465C45.59 29.99 45.665 26.773 44.187 21.915C43.867 20.605 43.437 19.455 42.917 18.455C42.817 18.655 42.727 18.855 42.647 19.065C43.067 19.945 43.427 20.945 43.697 22.055C45.127 26.704 45.144 30.386 45.647 32.575C45.707 32.835 45.767 33.095 45.827 33.335C46.107 34.395 46.937 35.965 48.287 38.005C49.067 39.175 49.457 40.505 49.457 41.825C49.457 43.315 48.957 44.775 47.977 45.925C45.037 49.375 39.087 51.555 32.057 51.755C24.647 51.965 17.917 49.885 14.557 46.345C12.387 44.075 12.157 40.515 14.007 37.885C15.067 36.375 15.707 35.315 15.907 34.735C16.766 32.223 16.77 30.995 17.077 28.615C17.397 26.205 17.857 23.995 18.457 22.035C20.297 14.485 26.117 12.565 29.167 12.095V11.585C26.017 12.065 19.897 14.015 17.977 21.905C16.381 27.147 16.602 31.336 15.437 34.565C15.307 34.935 14.887 35.765 13.597 37.595C11.617 40.415 11.867 44.245 14.187 46.695C17.497 50.165 23.887 52.265 31.047 52.265C31.387 52.265 31.727 52.265 32.077 52.255C37.645 52.1 44.74 50.509 48.357 46.245C50.347 43.905 50.497 40.405 48.707 37.725ZM40.857 15.535C38.297 12.825 35.057 11.895 33.027 11.585V12.095C35.007 12.405 38.147 13.335 40.597 16.015C40.687 15.855 40.767 15.695 40.857 15.535Z" fill="#0C0C0C"/>
<path d="M44.7359 39.304C44.6916 39.3042 44.6481 39.2925 44.6099 39.27L41.8669 37.674C41.7059 37.576 41.6409 37.377 41.6999 37.162L42.7089 32.544C42.7153 32.5199 42.7167 32.4947 42.7129 32.47C42.4549 32.306 42.6979 31.892 42.9959 32.069L45.7379 33.664C45.9279 33.784 45.9979 34.011 45.9249 34.263L44.9209 38.853L44.9179 38.883C44.9509 38.9186 44.9729 38.963 44.981 39.0109C44.9892 39.0587 44.9833 39.1079 44.964 39.1524C44.9447 39.197 44.9129 39.2349 44.8724 39.2617C44.8319 39.2884 44.7844 39.3038 44.7359 39.304ZM42.1859 37.282L44.4639 38.606L45.4409 34.14C45.4559 34.088 45.4549 34.067 45.4529 34.06L43.1749 32.75L42.1859 37.282Z" fill="#0C0C0C"/>
<path d="M43.954 33.51C43.9097 33.5102 43.8662 33.4985 43.828 33.476L43.818 33.47L41.096 31.883C39.084 30.719 37.968 28.286 37.958 25.034C37.936 18.414 42.615 10.306 48.388 6.96103C50.766 5.60803 53.621 4.86403 56.003 6.25203L58.745 7.84503C58.8022 7.87844 58.8439 7.93325 58.8608 7.99739C58.8777 8.06152 58.8684 8.12974 58.835 8.18703C58.8184 8.21539 58.7964 8.24022 58.7703 8.26009C58.7442 8.27997 58.7144 8.2945 58.6826 8.30286C58.6185 8.31973 58.5503 8.31044 58.493 8.27703L58.477 8.26703C56.239 6.97403 53.619 7.74203 51.366 8.98903C45.736 12.241 41.169 20.155 41.19 26.625C41.199 29.685 42.225 31.965 44.08 33.045C44.127 33.0729 44.1635 33.1154 44.1841 33.1661C44.2046 33.2167 44.208 33.2727 44.1937 33.3254C44.1794 33.3782 44.1482 33.4248 44.1049 33.4581C44.0616 33.4914 44.0086 33.5097 43.954 33.51ZM48.635 7.39503C43.004 10.659 38.436 18.572 38.458 25.032C38.468 28.1 39.494 30.379 41.348 31.45L42.124 31.904C41.194 30.595 40.697 28.791 40.69 26.627C40.66 17.614 49.266 6.41103 56.533 7.13703C56.093 7.02903 53.73 4.50703 48.635 7.39503Z" fill="#0C0C0C"/>
<path d="M44.797 39.317C44.7163 39.3173 44.6377 39.2913 44.573 39.243C44.439 39.143 44.386 38.964 44.433 38.762L45.447 34.132C45.4504 34.1189 45.4525 34.1055 45.453 34.092C42.481 33.482 40.702 30.698 40.69 26.628C40.672 19.996 45.352 11.888 51.125 8.55599C53.484 7.19299 56.352 6.46999 58.721 7.83099C60.447 8.82299 61.547 10.775 61.816 13.327C62.527 20.084 57.679 29.17 51.441 32.772C50.61 33.252 49.778 33.618 48.969 33.862C48.9178 33.8925 48.8735 33.9334 48.839 33.982L45.248 39.05C45.1913 39.1304 45.1188 39.1984 45.035 39.25C44.9628 39.2926 44.8808 39.3157 44.797 39.317ZM51.375 8.98999C45.74 12.242 41.172 20.155 41.19 26.626C41.2 30.464 42.851 33.076 45.604 33.612C45.6589 33.6223 45.7111 33.6437 45.7576 33.6748C45.804 33.7059 45.8436 33.7461 45.874 33.793C45.9135 33.8596 45.9393 33.9335 45.9497 34.0103C45.9602 34.0871 45.9552 34.1652 45.935 34.24L44.992 38.546L48.434 33.689C48.5245 33.5649 48.6444 33.4653 48.783 33.399C49.597 33.151 50.393 32.799 51.191 32.339C57.279 28.823 62.011 19.964 61.318 13.38C61.066 10.991 60.055 9.17399 58.472 8.26499C56.275 7.00299 53.576 7.71899 51.375 8.98999Z" fill="#0C0C0C"/>
<path d="M61.567 13.354C61 7.98197 56.719 5.61397 51.25 8.77297C45.54 12.07 40.922 20.059 40.94 26.627C40.952 30.752 42.787 33.317 45.556 33.857C45.676 33.88 45.73 34.01 45.691 34.186L44.677 38.818C44.627 39.035 44.759 39.119 44.907 39.033C44.9609 39.0001 45.0076 38.9566 45.044 38.905L48.638 33.833C48.7055 33.7419 48.795 33.6693 48.898 33.622C49.7425 33.3609 50.5539 33.0028 51.316 32.555C57.429 29.025 62.28 20.125 61.566 13.355L61.567 13.354ZM56.18 14.58L49.422 25.498C49.302 25.688 48.984 26.053 48.789 25.95L46.223 24.474C45.924 24.311 46.406 23.268 46.845 23.268L49.201 24.576L54.871 14.014C55.066 13.652 55.342 13.349 55.628 13.184C55.7475 13.1093 55.8842 13.0666 56.025 13.06C56.084 13.06 56.137 13.07 56.185 13.092C56.28 13.135 56.351 13.222 56.395 13.35C56.5 13.665 56.418 14.136 56.18 14.58Z" fill="#0C0C0C"/>
<path d="M54.723 22.85C54.4655 22.836 54.2233 22.7238 54.046 22.5366C53.8687 22.3494 53.7699 22.1013 53.7699 21.8435C53.7699 21.5857 53.8687 21.3377 54.046 21.1505C54.2233 20.9633 54.4655 20.8511 54.723 20.837C55.283 20.837 55.738 21.287 55.738 21.843C55.738 22.399 55.283 22.85 54.723 22.85ZM12.123 22.85C11.8655 22.836 11.6233 22.7238 11.446 22.5366C11.2687 22.3494 11.1699 22.1013 11.1699 21.8435C11.1699 21.5857 11.2687 21.3377 11.446 21.1505C11.6233 20.9633 11.8655 20.8511 12.123 20.837C12.682 20.837 13.137 21.287 13.137 21.843C13.137 22.399 12.682 22.85 12.122 22.85H12.123ZM40.429 10.897C40.1715 10.883 39.9293 10.7708 39.752 10.5836C39.5747 10.3964 39.4759 10.1483 39.4759 9.89053C39.4759 9.6327 39.5747 9.38468 39.752 9.19747C39.9293 9.01026 40.1715 8.89809 40.429 8.88403C40.989 8.88403 41.443 9.33503 41.443 9.89103C41.443 10.447 40.988 10.897 40.429 10.897ZM6.74697 35.284C6.48954 35.27 6.24727 35.1578 6.07 34.9706C5.89274 34.7834 5.79395 34.5353 5.79395 34.2775C5.79395 34.0197 5.89274 33.7717 6.07 33.5845C6.24727 33.3973 6.48954 33.2851 6.74697 33.271C7.30697 33.271 7.76097 33.721 7.76097 34.277C7.76097 34.833 7.30697 35.284 6.74697 35.284ZM59.618 46.888C59.5394 46.8882 59.4639 46.8573 59.408 46.802L58.148 45.539C58.093 45.4838 58.0622 45.409 58.0622 45.331C58.0622 45.2531 58.093 45.1783 58.148 45.123L59.404 43.867C59.4311 43.8395 59.4635 43.8176 59.4992 43.8026C59.5349 43.7877 59.5733 43.78 59.612 43.78C59.6507 43.78 59.689 43.7877 59.7247 43.8026C59.7604 43.8176 59.7928 43.8395 59.82 43.867L61.083 45.129C61.1379 45.1843 61.1688 45.2591 61.1688 45.337C61.1688 45.415 61.1379 45.4897 61.083 45.545L59.826 46.802C59.7988 46.8295 59.7664 46.8513 59.7307 46.866C59.6949 46.8808 59.6566 46.8883 59.618 46.888ZM20.071 9.33403C20.0312 9.33399 19.9931 9.31817 19.965 9.29003L19.328 8.65203C19.3003 8.62411 19.2847 8.58637 19.2847 8.54703C19.2847 8.50768 19.3003 8.46994 19.328 8.44203L19.963 7.80603C19.9767 7.79218 19.9931 7.78119 20.0111 7.77369C20.0291 7.76619 20.0485 7.76233 20.068 7.76233C20.0875 7.76233 20.1068 7.76619 20.1248 7.77369C20.1429 7.78119 20.1592 7.79218 20.173 7.80603L20.813 8.44403C20.8407 8.47194 20.8563 8.50968 20.8563 8.54903C20.8563 8.58837 20.8407 8.62611 20.813 8.65403L20.176 9.29003C20.1623 9.30397 20.1459 9.31505 20.1279 9.3226C20.1099 9.33016 20.0905 9.33404 20.071 9.33403ZM9.04297 10.508C9.01111 10.508 8.97957 10.5017 8.9502 10.4893C8.92084 10.4769 8.89424 10.4588 8.87197 10.436L7.83197 9.39703C7.7866 9.35148 7.76113 9.28981 7.76113 9.22553C7.76113 9.16124 7.7866 9.09957 7.83197 9.05403L8.86697 8.02103C8.88932 7.9982 8.916 7.98006 8.94545 7.96768C8.9749 7.9553 9.00653 7.94892 9.03847 7.94892C9.07042 7.94892 9.10205 7.9553 9.1315 7.96768C9.16095 7.98006 9.18763 7.9982 9.20997 8.02103L10.248 9.05903C10.2706 9.08151 10.2885 9.10824 10.3007 9.13767C10.3129 9.1671 10.3192 9.19866 10.3192 9.23053C10.3192 9.2624 10.3129 9.29395 10.3007 9.32338C10.2885 9.35282 10.2706 9.37954 10.248 9.40203L9.21497 10.436C9.19259 10.4589 9.16583 10.4771 9.13629 10.4895C9.10674 10.5019 9.07501 10.5082 9.04297 10.508ZM10.953 60.339C10.6955 60.325 10.4533 60.2128 10.276 60.0256C10.0987 59.8384 9.99995 59.5903 9.99995 59.3325C9.99995 59.0747 10.0987 58.8267 10.276 58.6395C10.4533 58.4523 10.6955 58.3401 10.953 58.326C11.513 58.326 11.967 58.776 11.967 59.332C11.967 59.888 11.513 60.339 10.953 60.339Z" fill="black"/>
<path d="M32.777 10.905V13.635C32.777 14.385 31.907 14.735 31.097 14.735C30.287 14.735 29.417 14.385 29.417 13.635V10.895C29.247 10.835 29.077 10.755 28.917 10.665V13.635C28.917 14.735 30.047 15.235 31.097 15.235C32.147 15.235 33.277 14.735 33.277 13.635V10.675C33.117 10.765 32.947 10.835 32.777 10.905Z" fill="#0C0C0C"/>
<path d="M34.4551 6.64928C34.849 4.15571 33.1469 1.81494 30.6533 1.42102C28.1597 1.0271 25.819 2.72921 25.425 5.22278C25.0311 7.71635 26.7332 10.0571 29.2268 10.451C31.7204 10.845 34.0611 9.14285 34.4551 6.64928Z" fill="#007AFF"/>
<path d="M27.703 10.08C27.2515 9.63519 26.8929 9.10515 26.6479 8.52063C26.403 7.93611 26.2766 7.30874 26.276 6.67496C26.2733 6.04195 26.3953 5.4146 26.635 4.82874C26.8748 4.24289 27.2276 3.71001 27.6733 3.26054C28.1191 2.81108 28.649 2.45384 29.2329 2.20924C29.8167 1.96463 30.443 1.83745 31.076 1.83496H31.098C32.373 1.83469 33.5961 2.33968 34.4995 3.23934C35.403 4.139 35.913 5.36 35.918 6.63496C35.936 10.912 30.738 13.09 27.703 10.08ZM31.097 2.33396H31.079C30.5114 2.33606 29.9498 2.45001 29.4263 2.66932C28.9028 2.88862 28.4276 3.20897 28.028 3.61204C27.6283 4.01511 27.3121 4.49301 27.0972 5.01839C26.8824 5.54378 26.7733 6.10636 26.776 6.67396C26.7766 7.24162 26.8899 7.80352 27.1093 8.32708C27.3287 8.85064 27.6498 9.32545 28.054 9.72396C30.774 12.421 35.434 10.471 35.418 6.63696C35.4135 5.49417 34.9564 4.39973 34.1468 3.59324C33.3371 2.78676 32.2398 2.33395 31.097 2.33396Z" fill="#0C0C0C"/>
</svg>
