<svg width="68" height="68" viewBox="0 0 68 68" fill="none" xmlns="http://www.w3.org/2000/svg">
<path d="M50.72 61.72C50.72 64.03 43.23 65.9 33.99 65.9C24.76 65.9 17.27 64.03 17.27 61.72C17.27 59.41 24.76 57.54 33.99 57.54C43.24 57.54 50.72 59.41 50.72 61.72Z" fill="#D0DFFC"/>
<path d="M37.0699 37.4301V51.2101C37.0699 51.7701 36.6199 52.2201 36.0599 52.2201H31.9499C31.3899 52.2201 30.9399 51.7701 30.9399 51.2101V37.4301C30.9399 36.8801 31.3899 36.4301 31.9499 36.4301H36.0599C36.6199 36.4301 37.0699 36.8801 37.0699 37.4301Z" fill="#6150CC"/>
<path d="M37.0699 37.4301V42.5501H30.9399V37.4301C30.9399 36.8801 31.3899 36.4301 31.9499 36.4301H36.0599C36.6199 36.4301 37.0699 36.8801 37.0699 37.4301Z" fill="#111172"/>
<path d="M23.7201 6.13998V13.63C23.7201 14.12 23.2101 14.44 22.7601 14.22L21.4401 13.57L16.5501 11.17C16.3201 11.06 16.1801 10.83 16.1801 10.58V6.13998C16.1801 5.77998 16.4801 5.47998 16.8401 5.47998H23.0601C23.4201 5.47998 23.7201 5.77998 23.7201 6.13998ZM23.7201 18.11V25.6C23.7201 26.09 23.2101 26.41 22.7601 26.19L21.4401 25.54L16.5501 23.14C16.3201 23.03 16.1801 22.8 16.1801 22.55V18.11C16.1801 17.75 16.4801 17.45 16.8401 17.45H23.0601C23.4201 17.45 23.7201 17.75 23.7201 18.11ZM23.7201 30.09V37.58C23.7201 38.07 23.2101 38.39 22.7601 38.17L21.4401 37.52L16.5501 35.12C16.3201 35.01 16.1801 34.78 16.1801 34.53V30.09C16.1801 29.73 16.4801 29.43 16.8401 29.43H23.0601C23.4201 29.43 23.7201 29.73 23.7201 30.09ZM51.8201 6.13998V10.58C51.8201 10.83 51.6801 11.06 51.4501 11.17L46.5601 13.57L45.2401 14.22C44.7901 14.44 44.2801 14.12 44.2801 13.63V6.13998C44.2801 5.77998 44.5801 5.47998 44.9401 5.47998H51.1601C51.5201 5.47998 51.8201 5.77998 51.8201 6.13998ZM51.8201 18.11V22.55C51.8201 22.8 51.6801 23.03 51.4501 23.14L46.5601 25.54L45.2401 26.19C44.7901 26.41 44.2801 26.09 44.2801 25.6V18.11C44.2801 17.75 44.5801 17.45 44.9401 17.45H51.1601C51.5201 17.45 51.8201 17.75 51.8201 18.11ZM51.8201 30.09V34.53C51.8201 34.78 51.6801 35.01 51.4501 35.12L46.5601 37.52L45.2401 38.17C44.7901 38.39 44.2801 38.07 44.2801 37.58V30.09C44.2801 29.73 44.5801 29.43 44.9401 29.43H51.1601C51.5201 29.43 51.8201 29.73 51.8201 30.09Z" fill="#6150CC"/>
<path d="M23.7199 6.13998V13.63C23.7199 14.12 23.2099 14.44 22.7599 14.22L21.4399 13.57V5.47998H23.0599C23.4199 5.47998 23.7199 5.77998 23.7199 6.13998ZM23.7199 18.11V25.6C23.7199 26.09 23.2099 26.41 22.7599 26.19L21.4399 25.54V17.45H23.0599C23.4199 17.45 23.7199 17.75 23.7199 18.11ZM23.7199 30.09V37.58C23.7199 38.07 23.2099 38.39 22.7599 38.17L21.4399 37.52V29.43H23.0599C23.4199 29.43 23.7199 29.73 23.7199 30.09ZM46.5499 5.47998V13.57L45.2299 14.22C44.7799 14.44 44.2699 14.12 44.2699 13.63V6.13998C44.2699 5.77998 44.5699 5.47998 44.9299 5.47998H46.5499ZM44.9299 17.45H46.5499V25.54L45.2299 26.19C44.7799 26.41 44.2699 26.09 44.2699 25.6V18.11C44.2799 17.75 44.5699 17.45 44.9299 17.45ZM44.9299 29.43H46.5499V37.52L45.2299 38.17C44.7799 38.39 44.2699 38.07 44.2699 37.58V30.09C44.2799 29.73 44.5699 29.43 44.9299 29.43Z" fill="#111172"/>
<path d="M45.5499 3.73998V39.98C45.5499 40.89 44.8099 41.62 43.91 41.62H24.09C23.19 41.62 22.45 40.89 22.45 39.98V3.73998C22.45 2.82998 23.19 2.09998 24.09 2.09998H43.9199C44.8199 2.09998 45.5499 2.82998 45.5499 3.73998Z" fill="#DCE6F9"/>
<path d="M43.38 5.29003V38.43C43.38 38.92 42.99 39.31 42.5 39.31H25.49C25 39.31 24.61 38.92 24.61 38.43V5.29003C24.61 4.80003 25 4.41003 25.49 4.41003H42.5C42.99 4.41003 43.38 4.80003 43.38 5.29003Z" fill="#BDCDEE"/>
<path d="M38.94 10.8799C38.94 13.2699 36.99 15.2199 34.59 15.2199C32.2 15.2199 30.25 13.2699 30.25 10.8799C30.25 8.47995 32.2 6.52995 34.59 6.52995C36.99 6.51995 38.94 8.46995 38.94 10.8799ZM38.94 22.2899C38.94 24.6799 36.99 26.6299 34.59 26.6299C32.2 26.6299 30.25 24.6799 30.25 22.2899C30.25 19.8899 32.2 17.9399 34.59 17.9399C36.99 17.9399 38.94 19.8899 38.94 22.2899ZM38.94 33.6999C38.94 36.0899 36.99 38.0399 34.59 38.0399C32.2 38.0399 30.25 36.0899 30.25 33.6999C30.25 31.2999 32.2 29.3499 34.59 29.3499C36.99 29.3499 38.94 31.2999 38.94 33.6999Z" fill="#7D9CDE"/>
<path d="M38.35 10.45C38.35 12.84 36.4 14.79 34 14.79C31.61 14.79 29.66 12.84 29.66 10.45C29.66 8.04998 31.61 6.09998 34 6.09998C36.4 6.09998 38.35 8.04998 38.35 10.45Z" fill="#F24865"/>
<path d="M38.35 21.86C38.35 24.25 36.4 26.2 34 26.2C31.61 26.2 29.66 24.25 29.66 21.86C29.66 19.46 31.61 17.51 34 17.51C36.4 17.51 38.35 19.46 38.35 21.86Z" fill="#FFE44D"/>
<path d="M38.35 33.2799C38.35 35.6699 36.4 37.6199 34 37.6199C31.61 37.6199 29.66 35.6699 29.66 33.2799C29.66 30.8799 31.61 28.9299 34 28.9299C36.4 28.9299 38.35 30.8799 38.35 33.2799Z" fill="#5CBEFF"/>
</svg>
