<svg width="68" height="68" viewBox="0 0 68 68" fill="none" xmlns="http://www.w3.org/2000/svg">
<path d="M50.72 61.82C50.72 64.13 43.23 66 33.99 66C24.76 66 17.27 64.13 17.27 61.82C17.27 59.51 24.76 57.64 33.99 57.64C43.24 57.64 50.72 59.51 50.72 61.82Z" fill="#D0DFFC"/>
<path d="M52.98 20.96C52.98 29.87 39.27 45.7 35.16 50.25C34.54 50.93 33.47 50.93 32.85 50.25C28.74 45.7 15.03 29.87 15.03 20.96C15.02 10.48 23.52 2 34 2C44.48 2 52.98 10.48 52.98 20.96Z" fill="#F24865"/>
<path d="M47.63 20.97C47.63 28.5 41.53 34.6 34 34.6C26.47 34.6 20.36 28.5 20.36 20.97C20.36 13.44 26.47 7.33998 34 7.33998C41.53 7.32998 47.63 13.43 47.63 20.97Z" fill="#CF1B4C"/>
<path d="M44.89 20.97C44.89 26.99 40.02 31.86 34 31.86C27.98 31.86 23.1 26.99 23.1 20.97C23.1 14.95 27.98 10.08 34 10.08C40.02 10.08 44.89 14.95 44.89 20.97Z" fill="white"/>
</svg>
