<svg width="24" height="24" viewBox="0 0 24 24" fill="none" xmlns="http://www.w3.org/2000/svg">
<g clip-path="url(#clip0_1931_1170)">
<path d="M11.9952 22.6193C17.8606 22.6193 22.6155 17.8645 22.6155 11.9991C22.6155 6.13374 17.8606 1.37891 11.9952 1.37891C6.12982 1.37891 1.375 6.13374 1.375 11.9991C1.375 17.8645 6.12982 22.6193 11.9952 22.6193Z" stroke="#080B30" stroke-width="1.5" stroke-linecap="round" stroke-linejoin="round"/>
<path d="M5.05114 16.0838C5.80948 16.0838 6.53674 15.7825 7.07296 15.2463C7.60918 14.7101 7.91042 13.9828 7.91042 13.2245V10.7737C7.91042 10.0154 8.21166 9.28809 8.74788 8.75187C9.2841 8.21565 10.0114 7.91441 10.7697 7.91441C11.528 7.91441 12.2553 7.61316 12.7915 7.07695C13.3277 6.54073 13.629 5.81345 13.629 5.05513V1.5038C13.0964 1.42157 12.5508 1.37891 11.9952 1.37891C6.12982 1.37891 1.375 6.13374 1.375 11.9991C1.375 13.4466 1.66457 14.8264 2.18894 16.0838H5.05114Z" stroke="#080B30" stroke-width="1.5" stroke-linecap="round" stroke-linejoin="round"/>
<path d="M22.618 11.8346C21.8004 11.4105 20.8934 11.1867 19.9722 11.1816H16.4921C15.7338 11.1816 15.0065 11.4829 14.4703 12.0191C13.9341 12.5553 13.6328 13.2826 13.6328 14.0409C13.6328 14.7992 13.9341 15.5265 14.4703 16.0627C15.0065 16.599 15.7338 16.9002 16.4921 16.9002C17.0338 16.9002 17.5532 17.1154 17.9362 17.4984C18.3193 17.8815 18.5344 18.4009 18.5344 18.9425V20.3641H18.5426C21.0091 18.4321 22.5995 15.433 22.6191 12.0617V11.9354C22.6189 11.9018 22.6185 11.8682 22.618 11.8346Z" stroke="#080B30" stroke-width="1.5" stroke-linecap="round" stroke-linejoin="round"/>
</g>
<defs>
<clipPath id="clip0_1931_1170">
<rect width="23.998" height="23.998" fill="white"/>
</clipPath>
</defs>
</svg>
