<svg width="31" height="31" viewBox="0 0 31 31" fill="none" xmlns="http://www.w3.org/2000/svg">
<path fill-rule="evenodd" clip-rule="evenodd" d="M28.5187 11.0753L29.6351 12.1913C30.519 13.0593 30.9996 14.2373 30.9996 15.4773C31.0151 16.7173 30.5345 17.8969 29.6662 18.7788C29.6558 18.7902 29.6455 18.8002 29.6351 18.8102C29.63 18.8152 29.6248 18.8202 29.6196 18.8253L28.5187 19.9258C28.0846 20.3598 27.8365 20.9488 27.8365 21.5704V23.1653C27.8365 25.7383 25.7432 27.8324 23.1693 27.8324H21.5722C20.952 27.8324 20.3628 28.0788 19.9286 28.5128L18.8122 29.6288C17.8974 30.5449 16.7035 30.9928 15.5095 30.9928C14.3156 30.9928 13.1217 30.5449 12.2068 29.6459L11.0749 28.5128C10.6408 28.0788 10.0515 27.8324 9.43132 27.8324H7.83424C5.26031 27.8324 3.16705 25.7383 3.16705 23.1653V21.5704C3.16705 20.9488 2.91896 20.3598 2.4848 19.9103L1.3684 18.8098C-0.445762 16.9979 -0.461267 14.0358 1.35289 12.2084L2.4848 11.0753C2.91896 10.6413 3.16705 10.0523 3.16705 9.41684V7.83584C3.16705 5.26284 5.26031 3.17189 7.83424 3.17189H9.43132C10.0515 3.17189 10.6408 2.92234 11.0749 2.48834L12.1913 1.37234C14.0055 -0.455114 16.967 -0.455114 18.7967 1.35839L19.9286 2.48834C20.3628 2.92234 20.952 3.17189 21.5722 3.17189H23.1693C25.7432 3.17189 27.8365 5.26284 27.8365 7.83584V9.43389C27.8365 10.0523 28.0846 10.6413 28.5187 11.0753ZM11.511 20.8407C11.8831 20.8407 12.2242 20.7012 12.4723 20.4377L20.4422 12.4723C20.9694 11.9453 20.9694 11.0757 20.4422 10.5487C19.915 10.0233 19.0622 10.0233 18.535 10.5487L10.5651 18.5157C10.0379 19.0427 10.0379 19.9107 10.5651 20.4377C10.8132 20.7012 11.1543 20.8407 11.511 20.8407ZM18.1316 19.4764C18.1316 20.2359 18.7364 20.8404 19.4961 20.8404C20.2404 20.8404 20.8451 20.2359 20.8451 19.4764C20.8451 18.734 20.2404 18.1279 19.4961 18.1279C18.7364 18.1279 18.1316 18.734 18.1316 19.4764ZM11.5243 10.1605C12.2685 10.1605 12.8732 10.765 12.8732 11.509C12.8732 12.2701 12.2685 12.873 11.5243 12.873C10.78 12.873 10.1598 12.2701 10.1598 11.509C10.1598 10.765 10.78 10.1605 11.5243 10.1605Z" fill="#FFB733"/>
</svg>
