<svg width="24" height="24" viewBox="0 0 24 24" fill="none" xmlns="http://www.w3.org/2000/svg">
<path d="M5.46875 9C7.40175 9 8.96875 7.433 8.96875 5.5C8.96875 3.567 7.40175 2 5.46875 2C3.53575 2 1.96875 3.567 1.96875 5.5C1.96875 7.433 3.53575 9 5.46875 9Z" stroke="#080B30" stroke-width="1.5"/>
<path d="M16.9687 15H19.9687C21.0687 15 21.9687 15.9 21.9687 17V20C21.9687 21.1 21.0687 22 19.9687 22H16.9687C15.8687 22 14.9688 21.1 14.9688 20V17C14.9688 15.9 15.8687 15 16.9687 15Z" stroke="#080B30" stroke-width="1.5"/>
<path d="M11.9977 5H14.6777C16.5277 5 17.3877 7.29 15.9977 8.51L8.00775 15.5C6.61775 16.71 7.47775 19 9.31775 19H11.9977" stroke="#080B30" stroke-width="1.5" stroke-linecap="round" stroke-linejoin="round"/>
<path d="M5.48768 5.5H5.49924" stroke="#080B30" stroke-width="2" stroke-linecap="round" stroke-linejoin="round"/>
<path d="M18.4877 18.5H18.4992" stroke="#080B30" stroke-width="2" stroke-linecap="round" stroke-linejoin="round"/>
</svg>
